<mxfile host="app.diagrams.net" modified="2024-01-16T01:20:07.326Z" agent="Mozilla/5.0 (Windows NT 10.0; Win64; x64; rv:121.0) Gecko/20100101 Firefox/121.0" version="22.1.17" etag="OOum7v4-qSxuqyus93PJ" type="github">
  <diagram name="第 1 页" id="v2VoE6i0zB2rasKz2DNC">
    <mxGraphModel>
      <root>
        <mxCell id="0" />
        <mxCell id="1" parent="0" />
      </root>
    </mxGraphModel>
  </diagram>
</mxfile>
